<svg width="82" height="82" viewBox="0 0 82 82" fill="none" xmlns="http://www.w3.org/2000/svg">
<path d="M14.7942 21.3542V17.5787C14.7919 17.1429 14.8761 16.7109 15.0418 16.3078C15.2076 15.9047 15.4516 15.5384 15.7598 15.2302C16.068 14.922 16.4343 14.678 16.8374 14.5122C17.2405 14.3465 17.6725 14.2623 18.1083 14.2646H33.2271C36.6438 14.2646 42.7254 20.5683 45.7321 20.7221H71.5279C72.2664 20.7221 72.9747 21.0154 73.4969 21.5377C74.0191 22.0599 74.3125 22.7681 74.3125 23.5067V57.3146C74.3127 57.7586 74.2237 58.1981 74.0508 58.607C73.8779 59.0159 73.6245 59.3859 73.3058 59.695C72.9872 60.0042 72.6096 60.2461 72.1956 60.4065C71.7816 60.5669 71.3396 60.6425 70.8958 60.6287H67.2058V30.6133C67.2081 30.2485 67.1382 29.8867 67.0001 29.549C66.862 29.2113 66.6585 28.9041 66.4013 28.6453C66.1441 28.3866 65.8383 28.1812 65.5014 28.041C65.1645 27.9009 64.8032 27.8287 64.4383 27.8287H38.6254C35.6358 27.6579 29.5713 21.3542 26.1204 21.3542H11.0187C10.5821 21.3519 10.1493 21.436 9.74523 21.6015C9.34116 21.7671 8.97379 22.0108 8.66423 22.3188C8.35467 22.6268 8.10902 22.9929 7.9414 23.3961C7.77378 23.7993 7.68749 24.2317 7.6875 24.6683V64.4212C7.6875 65.3002 8.03667 66.1432 8.6582 66.7647C9.27972 67.3862 10.1227 67.7354 11.0017 67.7354H63.96C64.3959 67.7377 64.8278 67.6535 65.231 67.4877C65.6341 67.322 66.0003 67.078 66.3085 66.7698C66.6167 66.4616 66.8608 66.0953 67.0265 65.6922C67.1923 65.2891 67.2764 64.8571 67.2742 64.4212V35.875" stroke="white" stroke-linecap="round" stroke-linejoin="round"/>
</svg>
